<svg version="1.1" id="Layer_1" xmlns="http://www.w3.org/2000/svg" xmlns:xlink="http://www.w3.org/1999/xlink" x="0px" y="0px"
	 width="100%" viewBox="0 0 5721 3754" enable-background="new 0 0 5721 3754" xml:space="preserve">
<path fill="#000000" opacity="1.000000" stroke="none" 
	d="
M4.000000,2364.000000 
	C4.000000,1647.903687 4.000000,931.807373 4.002000,212.322754 
	C9.043663,199.378860 10.622634,189.057678 11.513384,178.406204 
	C12.840627,162.535217 13.945470,146.546722 16.877726,130.933670 
	C20.611259,111.054131 20.500683,91.241798 18.563723,71.399590 
	C16.359570,48.820236 15.441479,26.382380 20.000000,4.000000 
	C1254.763062,4.000000 2489.526123,4.000000 3727.400879,4.943393 
	C3739.075439,6.480635 3747.638184,7.074483 3757.899902,7.786789 
	C3768.208984,8.780200 3776.829834,9.559548 3785.426758,10.548691 
	C3807.891602,13.133467 3830.173340,17.043982 3853.013672,16.210255 
	C3865.565674,15.752090 3878.208984,17.854317 3890.813721,18.762571 
	C3904.762207,19.767693 3918.715332,21.587042 3932.664551,21.569689 
	C4033.979492,21.443647 4135.293945,21.006565 4236.607422,20.502703 
	C4254.596191,20.413242 4272.770996,21.018147 4290.523438,18.713274 
	C4318.445312,15.088052 4346.359863,15.008965 4374.333496,15.278233 
	C4416.372559,15.682892 4458.280273,14.473796 4501.687500,7.807692 
	C4517.359375,8.049476 4531.205078,8.330208 4545.002930,7.642826 
	C4552.709961,7.258859 4560.336914,5.267210 4568.000000,4.000000 
	C4801.429688,4.000000 5034.859375,4.000000 5271.661133,4.466924 
	C5285.851562,8.203778 5296.849121,9.414746 5309.958984,7.949484 
	C5318.418945,8.619704 5325.015137,9.640097 5331.602539,9.591199 
	C5411.685547,8.996740 5491.767578,8.244931 5573.655273,7.958850 
	C5590.242676,8.079481 5605.024414,7.775249 5621.575195,7.826091 
	C5634.032715,7.871486 5644.721191,7.561805 5657.166992,7.617759 
	C5667.140625,7.859540 5675.377441,8.031386 5683.561523,7.452047 
	C5686.441406,7.248175 5689.190918,5.203920 5692.000000,3.999987 
	C5704.000000,4.000000 5716.000000,4.000000 5726.871094,6.784358 
	C5725.436035,13.126803 5725.129883,16.684891 5724.526367,22.081566 
	C5724.209473,47.913052 5724.356445,71.907799 5724.090332,95.897957 
	C5723.979980,105.867149 5723.725098,115.938652 5722.230469,125.765060 
	C5719.729980,142.208206 5715.854004,158.438644 5713.177246,174.859848 
	C5711.041992,187.961105 5708.479980,201.207993 5708.429688,214.399094 
	C5708.090820,303.047272 5707.986816,391.700409 5708.575684,480.346832 
	C5709.062012,553.664734 5711.400391,626.932190 5719.368652,699.908386 
	C5721.392578,718.441650 5722.880859,737.033203 5724.162109,757.442383 
	C5723.973633,779.380249 5724.237305,799.473755 5724.169434,821.356750 
	C5724.001465,831.772034 5723.825684,840.424011 5724.485840,849.011780 
	C5724.771973,852.742493 5726.775879,856.341309 5728.000000,860.000000 
	C5728.000000,1161.429688 5728.000000,1462.859253 5726.951172,1767.414551 
	C5725.440918,1799.175537 5724.979980,1827.811157 5724.482422,1858.292725 
	C5724.321289,1872.578003 5724.061035,1885.017700 5724.102051,1897.456421 
	C5724.171875,1918.380127 5724.432617,1939.303223 5724.451172,1962.080444 
	C5724.192871,2080.769531 5724.079102,2197.604492 5724.028320,2314.439697 
	C5724.023438,2325.698486 5724.406738,2336.957275 5724.399414,2349.942871 
	C5723.393555,2358.049072 5725.154297,2364.885498 5721.073730,2371.795166 
	C5700.925781,2372.005859 5681.014648,2372.112061 5661.108398,2372.475830 
	C5653.804199,2372.609131 5646.480469,2373.078369 5639.218750,2373.876953 
	C5624.657715,2375.477539 5610.166992,2378.481689 5595.584961,2378.949951 
	C5575.000488,2379.610840 5554.215332,2379.897217 5533.777832,2377.794678 
	C5507.260742,2375.065918 5480.886230,2371.527588 5454.141602,2371.878418 
	C5430.153320,2372.193115 5406.144043,2372.522949 5382.170410,2371.873535 
	C5367.572266,2371.478271 5352.908203,2369.954102 5338.489746,2367.608154 
	C5326.845215,2365.713867 5314.990723,2363.068604 5305.397461,2353.920898 
	C5306.582520,2349.988281 5307.361328,2346.124756 5308.881836,2342.579102 
	C5315.804199,2326.430908 5314.594727,2309.937988 5310.721191,2293.519287 
	C5309.053711,2286.450439 5306.329102,2279.494385 5303.138672,2272.948242 
	C5294.631836,2255.494385 5288.656250,2237.282227 5284.163574,2218.415283 
	C5282.352539,2210.810059 5279.803711,2202.407715 5274.877930,2196.716553 
	C5264.063477,2184.224121 5257.816406,2169.785400 5252.807129,2154.588867 
	C5246.689941,2136.033203 5237.372559,2119.226074 5226.031738,2103.490234 
	C5198.509277,2065.302490 5165.673340,2032.361816 5126.677734,2005.971802 
	C5113.535156,1997.077393 5099.205078,1989.730103 5084.830078,1982.917236 
	C5067.022461,1974.477661 5047.838867,1971.799561 5028.287598,1974.507568 
	C5012.497559,1976.694580 4996.769043,1979.521729 4981.162598,1982.782227 
	C4964.889648,1986.181885 4948.902832,1990.988647 4932.589355,1994.139038 
	C4920.877930,1996.400635 4908.856934,1997.758545 4896.936523,1998.066284 
	C4880.982422,1998.478149 4868.084961,1993.281372 4864.360352,1975.295654 
	C4863.564941,1971.457886 4861.430176,1967.887329 4859.837891,1964.226318 
	C4845.494141,1931.248413 4830.660156,1898.464111 4811.846680,1867.768555 
	C4802.833984,1853.064575 4792.417480,1839.134766 4781.733887,1825.565063 
	C4770.882812,1811.782471 4755.868164,1804.937866 4738.361328,1804.027588 
	C4721.727051,1803.162842 4705.073242,1802.703003 4688.434570,1801.918091 
	C4676.466797,1801.353394 4664.326660,1801.620361 4652.590332,1799.608154 
	C4632.723145,1796.202026 4612.795898,1796.392212 4592.829590,1796.141724 
	C4570.171387,1795.857300 4547.507812,1795.840210 4524.856445,1795.284180 
	C4515.582520,1795.056641 4506.327637,1793.802612 4497.078613,1792.872314 
	C4481.835938,1791.339111 4466.638184,1789.210571 4451.364258,1788.169800 
	C4374.808105,1782.953369 4298.162598,1783.927246 4221.532715,1785.721802 
	C4108.267578,1788.374268 3995.021973,1791.862549 3881.700928,1791.203247 
	C3823.719971,1790.865845 3765.735107,1791.040771 3707.752441,1791.171753 
	C3643.773193,1791.316284 3579.793945,1791.561768 3515.815918,1791.988159 
	C3482.438477,1792.210693 3449.359863,1796.147339 3416.357910,1800.855225 
	C3408.489746,1801.977661 3400.521240,1803.022705 3392.597656,1803.031738 
	C3318.619873,1803.116577 3244.641846,1802.919922 3170.664062,1802.936646 
	C3159.343750,1802.939209 3148.002686,1803.303345 3136.709717,1804.070435 
	C3126.766113,1804.745850 3117.003174,1806.567017 3109.449707,1813.107300 
	C3101.072754,1845.708130 3105.109131,1877.606201 3109.836182,1909.169434 
	C3113.797363,1935.621460 3117.064453,1961.974365 3115.940674,1988.708130 
	C3114.446533,2024.251343 3119.556641,2059.017334 3126.082764,2093.842285 
	C3131.840820,2124.566650 3137.182617,2155.576416 3139.442139,2186.697510 
	C3142.382812,2227.197998 3142.553711,2267.927979 3142.984131,2308.569092 
	C3143.167236,2325.835938 3141.399170,2343.169189 3139.689941,2360.389893 
	C3138.909912,2368.249512 3136.596680,2376.063721 3134.130127,2383.621582 
	C3131.009277,2393.185059 3124.341064,2398.784180 3114.023438,2400.779541 
	C3099.444824,2403.598633 3084.967285,2404.555664 3070.358643,2401.804199 
	C3042.891846,2396.630859 3015.307129,2391.972168 2988.032227,2385.923828 
	C2959.860840,2379.676514 2931.703613,2376.761230 2902.785400,2378.233154 
	C2886.283447,2379.072754 2869.584717,2376.762451 2853.018066,2375.357178 
	C2841.751221,2374.401611 2830.561035,2372.544922 2819.334229,2371.110107 
	C2757.677979,2363.228516 2695.771973,2362.163574 2633.754639,2364.464111 
	C2626.444824,2364.735352 2619.151855,2365.656494 2611.868896,2366.441406 
	C2595.334229,2368.222412 2578.833984,2371.413086 2562.277832,2371.710205 
	C2506.348389,2372.714600 2450.365234,2371.414795 2394.546631,2376.340820 
	C2380.618164,2377.570068 2366.348389,2377.554688 2352.874512,2380.781006 
	C2322.297607,2388.102539 2291.539307,2391.638184 2260.134766,2393.318115 
	C2237.533691,2394.527100 2214.963867,2396.017822 2192.324951,2396.029297 
	C2134.342285,2396.058594 2076.359375,2395.934570 2018.376587,2395.915283 
	C1956.395142,2395.894531 1894.413574,2396.011963 1832.432251,2395.898438 
	C1792.419067,2395.825439 1752.470581,2393.856445 1712.790527,2388.682617 
	C1683.649780,2384.882812 1654.497314,2383.767578 1625.145630,2383.790527 
	C1364.555908,2383.993896 1103.965698,2384.020264 843.375854,2383.832764 
	C776.065857,2383.784180 708.754272,2382.984131 641.447327,2382.197998 
	C528.157349,2380.875244 414.873810,2378.615479 301.580994,2378.034912 
	C218.289124,2377.608154 134.986755,2379.233887 49.942390,2379.485596 
	C36.091228,2379.451416 23.986753,2379.876465 11.882284,2380.229004 
	C11.882288,2380.156006 11.737761,2380.138672 12.000435,2378.658936 
	C11.993429,2371.228271 12.282819,2364.926758 4.000000,2364.000000 
z"/>
<path fill="#FFFFFF" opacity="1.000000" stroke="none" 
	d="
M51.689083,2379.944824 
	C134.986755,2379.233887 218.289124,2377.608154 301.580994,2378.034912 
	C414.873810,2378.615479 528.157349,2380.875244 641.447327,2382.197998 
	C708.754272,2382.984131 776.065857,2383.784180 843.375854,2383.832764 
	C1103.965698,2384.020264 1364.555908,2383.993896 1625.145630,2383.790527 
	C1654.497314,2383.767578 1683.649780,2384.882812 1712.790527,2388.682617 
	C1752.470581,2393.856445 1792.419067,2395.825439 1832.432251,2395.898438 
	C1894.413574,2396.011963 1956.395142,2395.894531 2018.376587,2395.915283 
	C2076.359375,2395.934570 2134.342285,2396.058594 2192.324951,2396.029297 
	C2214.963867,2396.017822 2237.533691,2394.527100 2260.134766,2393.318115 
	C2291.539307,2391.638184 2322.297607,2388.102539 2352.874512,2380.781006 
	C2366.348389,2377.554688 2380.618164,2377.570068 2394.546631,2376.340820 
	C2450.365234,2371.414795 2506.348389,2372.714600 2562.277832,2371.710205 
	C2578.833984,2371.413086 2595.334229,2368.222412 2611.868896,2366.441406 
	C2619.151855,2365.656494 2626.444824,2364.735352 2633.754639,2364.464111 
	C2695.771973,2362.163574 2757.677979,2363.228516 2819.334229,2371.110107 
	C2830.561035,2372.544922 2841.751221,2374.401611 2853.018066,2375.357178 
	C2869.584717,2376.762451 2886.283447,2379.072754 2902.785400,2378.233154 
	C2931.703613,2376.761230 2959.860840,2379.676514 2988.032227,2385.923828 
	C3015.307129,2391.972168 3042.891846,2396.630859 3070.358643,2401.804199 
	C3084.967285,2404.555664 3099.444824,2403.598633 3114.023438,2400.779541 
	C3124.341064,2398.784180 3131.009277,2393.185059 3134.130127,2383.621582 
	C3136.596680,2376.063721 3138.909912,2368.249512 3139.689941,2360.389893 
	C3141.399170,2343.169189 3143.167236,2325.835938 3142.984131,2308.569092 
	C3142.553711,2267.927979 3142.382812,2227.197998 3139.442139,2186.697510 
	C3137.182617,2155.576416 3131.840820,2124.566650 3126.082764,2093.842285 
	C3119.556641,2059.017334 3114.446533,2024.251343 3115.940674,1988.708130 
	C3117.064453,1961.974365 3113.797363,1935.621460 3109.836182,1909.169434 
	C3105.109131,1877.606201 3101.072754,1845.708130 3109.449707,1813.107300 
	C3117.003174,1806.567017 3126.766113,1804.745850 3136.709717,1804.070435 
	C3148.002686,1803.303345 3159.343750,1802.939209 3170.664062,1802.936646 
	C3244.641846,1802.919922 3318.619873,1803.116577 3392.597656,1803.031738 
	C3400.521240,1803.022705 3408.489746,1801.977661 3416.357910,1800.855225 
	C3449.359863,1796.147339 3482.438477,1792.210693 3515.815918,1791.988159 
	C3579.793945,1791.561768 3643.773193,1791.316284 3707.752441,1791.171753 
	C3765.735107,1791.040771 3823.719971,1790.865845 3881.700928,1791.203247 
	C3995.021973,1791.862549 4108.267578,1788.374268 4221.532715,1785.721802 
	C4298.162598,1783.927246 4374.808105,1782.953369 4451.364258,1788.169800 
	C4466.638184,1789.210571 4481.835938,1791.339111 4497.078613,1792.872314 
	C4506.327637,1793.802612 4515.582520,1795.056641 4524.856445,1795.284180 
	C4547.507812,1795.840210 4570.171387,1795.857300 4592.829590,1796.141724 
	C4612.795898,1796.392212 4632.723145,1796.202026 4652.590332,1799.608154 
	C4664.326660,1801.620361 4676.466797,1801.353394 4688.434570,1801.918091 
	C4705.073242,1802.703003 4721.727051,1803.162842 4738.361328,1804.027588 
	C4755.868164,1804.937866 4770.882812,1811.782471 4781.733887,1825.565063 
	C4792.417480,1839.134766 4802.833984,1853.064575 4811.846680,1867.768555 
	C4830.660156,1898.464111 4845.494141,1931.248413 4859.837891,1964.226318 
	C4861.430176,1967.887329 4863.564941,1971.457886 4864.360352,1975.295654 
	C4868.084961,1993.281372 4880.982422,1998.478149 4896.936523,1998.066284 
	C4908.856934,1997.758545 4920.877930,1996.400635 4932.589355,1994.139038 
	C4948.902832,1990.988647 4964.889648,1986.181885 4981.162598,1982.782227 
	C4996.769043,1979.521729 5012.497559,1976.694580 5028.287598,1974.507568 
	C5047.838867,1971.799561 5067.022461,1974.477661 5084.830078,1982.917236 
	C5099.205078,1989.730103 5113.535156,1997.077393 5126.677734,2005.971802 
	C5165.673340,2032.361816 5198.509277,2065.302490 5226.031738,2103.490234 
	C5237.372559,2119.226074 5246.689941,2136.033203 5252.807129,2154.588867 
	C5257.816406,2169.785400 5264.063477,2184.224121 5274.877930,2196.716553 
	C5279.803711,2202.407715 5282.352539,2210.810059 5284.163574,2218.415283 
	C5288.656250,2237.282227 5294.631836,2255.494385 5303.138672,2272.948242 
	C5306.329102,2279.494385 5309.053711,2286.450439 5310.721191,2293.519287 
	C5314.594727,2309.937988 5315.804199,2326.430908 5308.881836,2342.579102 
	C5307.361328,2346.124756 5306.582520,2349.988281 5305.397461,2353.920898 
	C5314.990723,2363.068604 5326.845215,2365.713867 5338.489746,2367.608154 
	C5352.908203,2369.954102 5367.572266,2371.478271 5382.170410,2371.873535 
	C5406.144043,2372.522949 5430.153320,2372.193115 5454.141602,2371.878418 
	C5480.886230,2371.527588 5507.260742,2375.065918 5533.777832,2377.794678 
	C5554.215332,2379.897217 5575.000488,2379.610840 5595.584961,2378.949951 
	C5610.166992,2378.481689 5624.657715,2375.477539 5639.218750,2373.876953 
	C5646.480469,2373.078369 5653.804199,2372.609131 5661.108398,2372.475830 
	C5681.014648,2372.112061 5700.925781,2372.005859 5721.073730,2371.795166 
	C5725.154297,2364.885498 5723.393555,2358.049072 5725.254395,2350.003906 
	C5726.319824,2348.337891 5728.000000,2348.000000 5728.000000,2348.000000 
	C5728.000000,2818.570068 5728.000000,3289.140381 5728.000000,3759.731934 
	C3820.000000,3759.731934 1912.000000,3759.731934 4.000000,3759.731934 
	C4.000000,3300.892578 4.000000,2842.320801 5.192438,2381.111328 
	C8.169178,2379.028320 9.953479,2379.583496 11.737770,2380.138672 
	C11.737761,2380.138672 11.882288,2380.156006 12.751739,2381.610352 
	C26.310490,2382.024658 38.999790,2380.984863 51.689083,2379.944824 
M4887.135254,2137.248047 
	C4867.924316,2159.646240 4855.546875,2184.752441 4855.912109,2215.046631 
	C4855.967773,2219.679932 4855.495117,2224.417969 4854.510254,2228.943115 
	C4852.960938,2236.062988 4851.163086,2243.181152 4848.751953,2250.047852 
	C4845.562988,2259.130371 4839.056152,2263.898438 4829.019531,2263.724121 
	C4822.369629,2263.608398 4815.679199,2264.796387 4809.056152,2264.449463 
	C4798.445801,2263.892822 4791.649902,2268.990479 4785.979004,2277.275391 
	C4781.249023,2284.186035 4779.366211,2291.590820 4779.143555,2299.783203 
	C4778.538574,2322.011963 4781.951660,2343.700684 4788.937988,2364.666016 
	C4795.844238,2385.389893 4800.830078,2384.492188 4816.297852,2384.457031 
	C4817.630371,2384.453857 4818.963379,2384.425049 4820.295898,2384.418945 
	C4856.280273,2384.253906 4892.265137,2384.055908 4928.249512,2383.936523 
	C4957.568359,2383.839355 4986.842285,2383.799805 5016.083496,2380.514404 
	C5047.524902,2376.981445 5077.887695,2369.756592 5105.578613,2354.469727 
	C5130.022949,2340.975342 5153.419922,2325.579346 5177.214844,2310.918457 
	C5180.027344,2309.185303 5182.519531,2306.888916 5185.009766,2304.684082 
	C5194.454102,2296.321289 5200.015625,2285.943115 5199.889160,2273.188965 
	C5199.797363,2263.890381 5199.419922,2254.528076 5198.214355,2245.318848 
	C5193.068359,2205.992188 5175.067383,2172.007568 5153.301270,2139.729004 
	C5127.609863,2101.629395 5090.959473,2083.228027 5045.741699,2079.749023 
	C5015.921387,2077.455078 4987.540039,2084.127441 4959.184570,2091.700928 
	C4931.426758,2099.114746 4907.616699,2112.911865 4887.135254,2137.248047 
z"/>
<path fill="#F3F3F3" opacity="1.000000" stroke="none" 
	d="
M5724.615234,755.598022 
	C5722.880859,737.033203 5721.392578,718.441650 5719.368652,699.908386 
	C5711.400391,626.932190 5709.062012,553.664734 5708.575684,480.346832 
	C5707.986816,391.700409 5708.090820,303.047272 5708.429688,214.399094 
	C5708.479980,201.207993 5711.041992,187.961105 5713.177246,174.859848 
	C5715.854004,158.438644 5719.729980,142.208206 5722.230469,125.765060 
	C5723.725098,115.938652 5723.979980,105.867149 5724.090332,95.897957 
	C5724.356445,71.907799 5724.209473,47.913052 5725.337891,22.246719 
	C5726.446777,20.573288 5728.000000,20.000000 5728.000000,20.000000 
	C5728.000000,264.083588 5728.000000,508.167145 5727.173828,753.855103 
	C5726.348145,755.459473 5724.615234,755.598022 5724.615234,755.598022 
z"/>
<path fill="#FAF6F6" opacity="1.000000" stroke="none" 
	d="
M4499.840820,7.441983 
	C4458.280273,14.473796 4416.372559,15.682892 4374.333496,15.278233 
	C4346.359863,15.008965 4318.445312,15.088052 4290.523438,18.713274 
	C4272.770996,21.018147 4254.596191,20.413242 4236.607422,20.502703 
	C4135.293945,21.006565 4033.979492,21.443647 3932.664551,21.569689 
	C3918.715332,21.587042 3904.762207,19.767693 3890.813721,18.762571 
	C3878.208984,17.854317 3865.565674,15.752090 3853.013672,16.210255 
	C3830.173340,17.043982 3807.891602,13.133467 3785.426758,10.548691 
	C3776.829834,9.559548 3768.208984,8.780200 3757.542480,6.886595 
	C3755.485840,5.867942 3756.000000,4.000000 3756.000000,4.000000 
	C4002.750244,4.000000 4249.500488,4.000000 4498.105469,4.861402 
	C4499.959473,5.722804 4499.840820,7.441983 4499.840820,7.441983 
z"/>
<path fill="#EEEDED" opacity="1.000000" stroke="none" 
	d="
M18.000000,4.000000 
	C15.441479,26.382380 16.359570,48.820236 18.563723,71.399590 
	C20.500683,91.241798 20.611259,111.054131 16.877726,130.933670 
	C13.945470,146.546722 12.840627,162.535217 11.513384,178.406204 
	C10.622634,189.057678 9.043663,199.378860 4.002000,210.467224 
	C4.000000,142.666641 4.000000,73.333298 4.000000,4.000000 
	C8.072082,4.000000 12.036042,4.000000 18.000000,4.000000 
z"/>
<path fill="#BBBBBB" opacity="1.000000" stroke="none" 
	d="
M5728.000000,2346.125488 
	C5728.000000,2348.000000 5726.319824,2348.337891 5725.464844,2348.276855 
	C5724.406738,2336.957275 5724.023438,2325.698486 5724.028320,2314.439697 
	C5724.079102,2197.604492 5724.192871,2080.769531 5725.301758,1962.078125 
	C5726.313965,1960.222046 5728.000000,1960.000000 5728.000000,1960.000000 
	C5728.000000,2088.083496 5728.000000,2216.167236 5728.000000,2346.125488 
z"/>
<path fill="#FFFFFF" opacity="1.000000" stroke="none" 
	d="
M5571.849609,7.533988 
	C5491.767578,8.244931 5411.685547,8.996740 5331.602539,9.591199 
	C5325.015137,9.640097 5318.418945,8.619704 5309.474121,7.010084 
	C5307.414062,5.282679 5307.707031,4.641340 5308.000000,4.000000 
	C5394.750488,4.000000 5481.500488,4.000000 5570.181641,4.887500 
	C5572.112793,5.775000 5571.849609,7.533988 5571.849609,7.533988 
z"/>
<path fill="#878888" opacity="1.000000" stroke="none" 
	d="
M5728.000000,1958.125366 
	C5728.000000,1960.000000 5726.313965,1960.222046 5725.463379,1960.224365 
	C5724.432617,1939.303223 5724.171875,1918.380127 5724.102051,1897.456421 
	C5724.061035,1885.017700 5724.321289,1872.578003 5725.348633,1858.154053 
	C5726.251953,1856.169434 5728.000000,1856.000000 5728.000000,1856.000000 
	C5728.000000,1889.416870 5728.000000,1922.833862 5728.000000,1958.125366 
z"/>
<path fill="#3E3F3F" opacity="1.000000" stroke="none" 
	d="
M5728.000000,1854.125732 
	C5728.000000,1856.000000 5726.251953,1856.169434 5725.385742,1856.308105 
	C5724.979980,1827.811157 5725.440918,1799.175537 5726.951172,1769.270020 
	C5728.000000,1796.083862 5728.000000,1824.167603 5728.000000,1854.125732 
z"/>
<path fill="#BBBBBB" opacity="1.000000" stroke="none" 
	d="
M4501.687500,7.807692 
	C4499.840820,7.441983 4499.959473,5.722804 4499.979492,4.861402 
	C4521.419922,4.000000 4542.839355,4.000000 4566.129883,4.000000 
	C4560.336914,5.267210 4552.709961,7.258859 4545.002930,7.642826 
	C4531.205078,8.330208 4517.359375,8.049476 4501.687500,7.807692 
z"/>
<path fill="#878888" opacity="1.000000" stroke="none" 
	d="
M5724.162109,757.442383 
	C5724.615234,755.598022 5726.348145,755.459473 5727.173828,755.729736 
	C5728.000000,776.088379 5728.000000,796.176758 5727.121094,818.057617 
	C5726.242188,819.850037 5724.500977,819.567322 5724.500977,819.567322 
	C5724.237305,799.473755 5723.973633,779.380249 5724.162109,757.442383 
z"/>
<path fill="#BBBBBB" opacity="1.000000" stroke="none" 
	d="
M5573.655273,7.958851 
	C5571.849609,7.533988 5572.112793,5.775000 5572.056641,4.887500 
	C5586.771484,4.000000 5601.543457,4.000000 5618.168457,4.871089 
	C5620.021973,5.742178 5619.805664,7.471017 5619.805664,7.471017 
	C5605.024414,7.775249 5590.242676,8.079481 5573.655273,7.958851 
z"/>
<path fill="#3E3F3F" opacity="1.000000" stroke="none" 
	d="
M5724.169434,821.356750 
	C5724.500977,819.567322 5726.242188,819.850037 5727.121094,819.925049 
	C5728.000000,832.122375 5728.000000,844.244751 5728.000000,858.183594 
	C5726.775879,856.341309 5724.771973,852.742493 5724.485840,849.011780 
	C5723.825684,840.424011 5724.001465,831.772034 5724.169434,821.356750 
z"/>
<path fill="#3E3F3F" opacity="1.000000" stroke="none" 
	d="
M5690.200195,3.999987 
	C5689.190918,5.203920 5686.441406,7.248175 5683.561523,7.452047 
	C5675.377441,8.031386 5667.140625,7.859540 5657.323242,6.806849 
	C5655.721680,5.630305 5656.000000,4.000000 5656.000000,4.000000 
	C5666.800293,4.000000 5677.600098,4.000000 5690.200195,3.999987 
z"/>
<path fill="#878888" opacity="1.000000" stroke="none" 
	d="
M5654.200195,4.000000 
	C5656.000000,4.000000 5655.721680,5.630305 5655.565430,6.441216 
	C5644.721191,7.561805 5634.032715,7.871486 5621.575195,7.826092 
	C5619.805664,7.471017 5620.021973,5.742178 5620.010742,4.871089 
	C5630.800293,4.000000 5641.600098,4.000000 5654.200195,4.000000 
z"/>
<path fill="#878888" opacity="1.000000" stroke="none" 
	d="
M5306.200195,4.000000 
	C5307.707031,4.641340 5307.414062,5.282679 5307.606445,6.863418 
	C5296.849121,9.414746 5285.851562,8.203778 5273.516602,4.466924 
	C5282.800293,4.000000 5293.600098,4.000000 5306.200195,4.000000 
z"/>
<path fill="#3E3F3F" opacity="1.000000" stroke="none" 
	d="
M12.000444,2378.658936 
	C9.953479,2379.583496 8.169178,2379.028320 5.192438,2379.236572 
	C4.000000,2375.733154 4.000000,2371.466553 4.000000,2365.599854 
	C12.282819,2364.926758 11.993429,2371.228271 12.000444,2378.658936 
z"/>
<path fill="#878888" opacity="1.000000" stroke="none" 
	d="
M3754.250000,4.000000 
	C3756.000000,4.000000 3755.485840,5.867942 3755.843262,6.768137 
	C3747.638184,7.074483 3739.075439,6.480635 3729.256348,4.943393 
	C3736.166748,4.000000 3744.333252,4.000000 3754.250000,4.000000 
z"/>
<path fill="#BBBBBB" opacity="1.000000" stroke="none" 
	d="
M5728.000000,18.500000 
	C5728.000000,20.000000 5726.446777,20.573288 5725.635254,20.408134 
	C5725.129883,16.684891 5725.436035,13.126803 5726.871094,8.784357 
	C5728.000000,11.000000 5728.000000,14.000000 5728.000000,18.500000 
z"/>
<path fill="#3E3F3F" opacity="1.000000" stroke="none" 
	d="
M49.942394,2379.485840 
	C38.999790,2380.984863 26.310490,2382.024658 12.751735,2381.683105 
	C23.986753,2379.876465 36.091228,2379.451416 49.942394,2379.485840 
z"/>
<path fill="#020202" opacity="1.000000" stroke="none" 
	d="
M4888.042969,2136.149170 
	C4907.616699,2112.911865 4931.426758,2099.114746 4959.184570,2091.700928 
	C4987.540039,2084.127441 5015.921387,2077.455078 5045.741699,2079.749023 
	C5090.959473,2083.228027 5127.609863,2101.629395 5153.301270,2139.729004 
	C5175.067383,2172.007568 5193.068359,2205.992188 5198.214355,2245.318848 
	C5199.419922,2254.528076 5199.797363,2263.890381 5199.889160,2273.188965 
	C5200.015625,2285.943115 5194.454102,2296.321289 5185.009766,2304.684082 
	C5182.519531,2306.888916 5180.027344,2309.185303 5177.214844,2310.918457 
	C5153.419922,2325.579346 5130.022949,2340.975342 5105.578613,2354.469727 
	C5077.887695,2369.756592 5047.524902,2376.981445 5016.083496,2380.514404 
	C4986.842285,2383.799805 4957.568359,2383.839355 4928.249512,2383.936523 
	C4892.265137,2384.055908 4856.280273,2384.253906 4820.295898,2384.418945 
	C4818.963379,2384.425049 4817.630371,2384.453857 4816.297852,2384.457031 
	C4800.830078,2384.492188 4795.844238,2385.389893 4788.937988,2364.666016 
	C4781.951660,2343.700684 4778.538574,2322.011963 4779.143555,2299.783203 
	C4779.366211,2291.590820 4781.249023,2284.186035 4785.979004,2277.275391 
	C4791.649902,2268.990479 4798.445801,2263.892822 4809.056152,2264.449463 
	C4815.679199,2264.796387 4822.369629,2263.608398 4829.019531,2263.724121 
	C4839.056152,2263.898438 4845.562988,2259.130371 4848.751953,2250.047852 
	C4851.163086,2243.181152 4852.960938,2236.062988 4854.510254,2228.943115 
	C4855.495117,2224.417969 4855.967773,2219.679932 4855.912109,2215.046631 
	C4855.546875,2184.752441 4867.924316,2159.646240 4888.042969,2136.149170 
z"/>
</svg>